<svg id="Layer_1" data-name="Layer 1" xmlns="http://www.w3.org/2000/svg" viewBox="0 0 242.89 83.53"><title>birds</title><path d="M80,77.16h.24a.65.65,0,0,1,0,1.3H80A.65.65,0,0,1,80,77.16Z" transform="translate(-2.11 -2)" fill="#484848"/><path d="M47,64.11v-.24a.67.67,0,0,1,1.33,0v.24A.67.67,0,0,1,47,64.11Z" transform="translate(-2.11 -2)" fill="#484848"/><path d="M47.39,60.49l-.24-.24c-.61-.6.33-1.52.94-.92l.24.24C48.94,60.16,48,61.09,47.39,60.49Z" transform="translate(-2.11 -2)" fill="#484848"/><path d="M113.84,63.87a.67.67,0,0,1,1.33,0v.24a.67.67,0,0,1-1.33,0Z" transform="translate(-2.11 -2)" fill="#484848"/><path d="M116.46,59.37h.25a.66.66,0,0,1,0,1.31h-.25A.66.66,0,0,1,116.46,59.37Z" transform="translate(-2.11 -2)" fill="#484848"/><path d="M2.57,48.63A.56.56,0,0,1,2.88,48a54,54,0,0,1,9.38-4.12q-1.81-.32-3.63-.54a.71.71,0,0,1-.58-1,.64.64,0,0,1,.6-.47A215.77,215.77,0,0,0,44.27,36.8a39.76,39.76,0,0,1,23.16-9.69,8.7,8.7,0,0,1,.46-1.56c-4.22.31-7.44-.89-5-6a.54.54,0,0,1,.47-.33A34.47,34.47,0,0,1,61,15a6.87,6.87,0,0,1-.5-.74.64.64,0,0,1-.26-.53C59,10.88,60.55,7.83,63,5.69a14.92,14.92,0,0,1,8.52-3.48,10.58,10.58,0,0,1,3.11-.16l2,0,.08,0a.6.6,0,0,1,.88.4c.18.77.33,1.55.46,2.33,1.08,2.28,2.24,4.51,3.51,6.69l0,0c2.52-.53,5.82-.4,5.76,2.92,0,2-1.68,3.77-3.64,5.24a3.29,3.29,0,0,1,.49.42,26.17,26.17,0,0,1,7.41-1.21A.65.65,0,0,1,92,20q-1.89,1.74-3.89,3.37a7.3,7.3,0,0,1,2.54,1,.65.65,0,0,1-.16,1.19,13.61,13.61,0,0,1-2.82.44,14.61,14.61,0,0,0,.34,7.52l.73-1.4c.4-1,.81-1.91,1.21-2.87a.34.34,0,0,1,.56-.15l.27.3a.69.69,0,0,1,.45.49,10,10,0,0,1,1.2,1.79.58.58,0,0,1,.27.6,9.18,9.18,0,0,1,.77,4.7c-.07.62-.1,1.65-.78,2-.33.15-.93-.05-1.25-.09-.66-.1-1.31-.21-2-.33a1.72,1.72,0,0,1-.31.53,15.53,15.53,0,0,1-1.37,8.16c-2.65,5.8-8.11,9.63-14.16,11.51a41.69,41.69,0,0,1-9.92,1.74,29,29,0,0,0,4.4,2.58A4,4,0,0,1,70,62.63a2.89,2.89,0,0,1,2.6,1.26,2.07,2.07,0,0,1,.23.89c1.43.26,2.91.63,4.44,1,1.66-2.74,6.1-11.72,9.93-6.59a4.15,4.15,0,0,1-.57,5.4,8.48,8.48,0,0,1-5.88,2.22c1.62.5,3.28,1,5,1.5a.7.7,0,0,1,1.11.31l.13,0a.62.62,0,0,1,1-.46,16.28,16.28,0,0,1,1.31,1c1.32.31,2.64.57,3.94.76a7.24,7.24,0,0,1,.24-4.82,3,3,0,0,1,4-1.32,3.38,3.38,0,0,1,1.73,4.17,4,4,0,0,1-2.36,2.26,18.33,18.33,0,0,0,5.24-.65.68.68,0,0,1,.54-.17,15.37,15.37,0,0,0,2.11-.87c5.18-2.64,8.39-10.43,3.45-15A7.74,7.74,0,0,0,101.47,52a7.18,7.18,0,0,0-3.84,1.8l-1,1.33a5.19,5.19,0,0,0-.7,2.18,5.83,5.83,0,0,1,7.1,1.31.68.68,0,0,1-.09,1,.9.9,0,0,1,0,.23,4.12,4.12,0,0,1-7.06,1.44c-2.41-2.71-1.06-7,1.58-9a8.35,8.35,0,0,1,8.21-1.4,8.12,8.12,0,0,1-1.16-3.05c-.31-2-.07-4.87,2.59-4.66,5.92.46,7.3,7.88,3.84,11.63a.53.53,0,0,1-.53.19,10,10,0,0,1,1,8,11.17,11.17,0,0,1-4,5.88,6.39,6.39,0,0,1,5.07,1,3.57,3.57,0,0,1,.76,5.15,5.36,5.36,0,0,1-5.57,1.5c-2.62-.81-4.21-3.28-5.47-5.54-3.6.65-7.75.18-11.76-.65,2.78,2.8,5.5,7.06,1,8.79a4.51,4.51,0,0,1-5.3-1.83c-1.72-2.43-1.28-5.43-.68-8.15-2.26-.6-4.36-1.21-6.12-1.67-2.11-.54-4.27-1-6.45-1.42a8.38,8.38,0,0,1,1.61,2.21c.91,1.75,1.85,4.48.7,6.34s-3.06.91-4.12-.45a13.47,13.47,0,0,1-2.6-8.71c-.3,0-.59-.07-.89-.09a3.13,3.13,0,0,0-.32,1.18c0,.84-1.37.84-1.33,0a4.25,4.25,0,0,1,.28-1.28,39.79,39.79,0,0,0-6.82.17,4.67,4.67,0,0,1,.06,1.68c-.12.82-1.45.83-1.34,0a3.8,3.8,0,0,0,.05-1.5h0l-.89.14A4.38,4.38,0,0,1,56.75,68c-.38.75-1.52.09-1.15-.66a2.93,2.93,0,0,0,.32-1.25c-.52.12-1,.26-1.55.4a2.69,2.69,0,0,0-.21,1.3c.07.84-1.26.84-1.33,0a3.21,3.21,0,0,1,0-.82l-.54.19a24.44,24.44,0,0,0-11.68,8.75A20,20,0,0,1,57.21,73a2.75,2.75,0,0,1,2-2.5,3.17,3.17,0,0,1,4.09,2.2.41.41,0,0,1,0,.09,2,2,0,0,1-.18,1.76A2.92,2.92,0,0,1,60,76.34a3,3,0,0,1-2.42-1.78c0-.09-.1-.17-.14-.26a.59.59,0,0,1-.26,0,18.7,18.7,0,0,0-17.47,4,.63.63,0,0,1-.57.15c0,.06,0,.12-.08.17l-.15.88A9.23,9.23,0,0,1,40,78.59c1.21-.77,4.1-2.2,5.48-1.32,1.54,1,.54,3.25-.51,4.12a15.6,15.6,0,0,1-3.58,1.86l-4.76,2.21c-.76.35-1.42-.73-.7-1.11a.54.54,0,0,1-.15-.61c.11-.28.19-.57.28-.86C35,81,29.63,70.62,33.75,70.91c1.82.14,3.1,3.53,3.54,4.87a12.59,12.59,0,0,1,.49,2.15c.08-.17.17-.33.25-.5,1-4.61,2.39-10.7-.68-13.53a.55.55,0,0,1-.2-.4,1.86,1.86,0,0,1-.38.36c-1.66,1.2-4-.41-3.87-2.29a2.71,2.71,0,0,1,4-1.93,1.74,1.74,0,0,1,.78,1.44,2.6,2.6,0,0,1-.1,1.78.65.65,0,0,1,.73.12c1.92,1.77,2.28,4,2.11,6.53a48.29,48.29,0,0,1-.62,5c3.2-4.36,8-7.21,13.46-8.81a4,4,0,0,1,.51-.78,49.3,49.3,0,0,1-1.93-5.3.57.57,0,0,1,0-.43c-5.8-1.75-10.65-5.34-12.65-11.51a.54.54,0,0,1,.2-.65q-2.46-1-4.83-2.19-15.9,2-31.63,5C2.11,50,1.75,48.81,2.57,48.63Zm99,10.81a.57.57,0,0,1,.14-.24,4.5,4.5,0,0,0-5.41-.66C97.07,59.41,98.82,59.71,101.59,59.44Zm8-6.11a1,1,0,0,1-.17.28l.19.23C109.59,53.67,109.57,53.5,109.57,53.33Zm-1.69-8.61c-2.76-.7-2.37,2.42-1.84,4a7,7,0,0,0,3.25,3.87.62.62,0,0,1,.25.29,18.43,18.43,0,0,0-1-4.85c-.14-.4.5-.57.64-.18a19.19,19.19,0,0,1,1.1,5.63C112.37,50.69,111.87,45.72,107.88,44.72Zm-4.29,26.17a.25.25,0,0,1,.17,0l4.95,1.78c.4.14.23.77-.17.63l-4.45-1.6c1.51,2.35,3.64,4.63,6.62,3.49,2.22-.84,2.6-3.3.42-4.57-1.91-1.12-4.25-.42-6.22.12a.6.6,0,0,1-.69-.26c-.24.09-.49.16-.73.23Zm-43,2.85-.2.15c.52,0,.66-.4.56-.8A1.36,1.36,0,0,1,60.58,73.74ZM36.06,62h0a.39.39,0,0,0,.06-.11l-.06,0S36.06,62,36.06,62Zm-.27-1.34.12,0s0-.07,0-.1h-.15ZM43.18,81c.57-.29,2.8-1.85,1.36-2.58-.43-.21-1.79.33-2.23.5A8.77,8.77,0,0,0,40,80.19a8.2,8.2,0,0,0-2.5,3.42L41.05,82C41.76,81.66,42.49,81.34,43.18,81Zm-6.62-2.13c-.13-1.7-.72-4.63-2.15-5.76-1.27-1-.84.18-.53,1.32.23.81.5,1.61.79,2.4a34.47,34.47,0,0,0,1.83,4.06A10.43,10.43,0,0,0,36.56,78.85ZM71.71,21.9c3.55-.75,8.7-2.9,9.77-6.39a13.82,13.82,0,0,1-5.63,4.8A33.49,33.49,0,0,1,70.64,22ZM62.38,11.27h1.3a49.35,49.35,0,0,0,5.21-1.84,13.86,13.86,0,0,0,6-4.86A25.3,25.3,0,0,1,62.38,11.27ZM76.05,3.72l0,0h0Zm2.27,8.18-.16.18.18-.18Zm1.52-.68a21.11,21.11,0,0,1-9.53,6.38A22.47,22.47,0,0,1,64.84,19c.47.67,1,1.32,1.48,1.95a19.74,19.74,0,0,0,13.32-5.33c.44-.5.87-1,1.31-1.62a.7.7,0,0,1,.39-.26C80.83,12.94,80.32,12.08,79.84,11.22Zm4.93,5.46.14-.22Zm3.46,8a6.19,6.19,0,0,0-1.45-.24h0a1.17,1.17,0,0,1-.24.09A4.11,4.11,0,0,0,88.23,24.7Zm-2.31-1.22c1.3-1,2.56-2.11,3.81-3.21a24.89,24.89,0,0,0-4.46.84.67.67,0,0,1,0,.9,1.53,1.53,0,0,0,.44,2.09A.52.52,0,0,1,85.92,23.48Zm5.34,11.25,0,0,0,.06Zm-5.71,3.81c0-.06-.07-.15-.11-.22l-.4.06a.76.76,0,0,1-.33,0l-.59.59-.86.75c-.1.1-.21.19-.32.28l2.67-1.44Zm-2.64,3h0l0,0Zm-1-4.06h0Zm7-1.92,0,0,.16.21c.26-.42.53-.84.8-1.26ZM92.44,38l-.17.11A.62.62,0,0,0,92.44,38ZM68.67,64.25l.22,0a.89.89,0,0,1,.36,0,1.34,1.34,0,0,0,0-.2h0A2.43,2.43,0,0,0,68.67,64.25ZM71,66.42a.64.64,0,0,0,0-.07h0l-.13-.07ZM70.57,64a3.65,3.65,0,0,1,0,.47l.82.1a1,1,0,0,0-.27-.36A1.39,1.39,0,0,0,70.57,64Zm15.26-4.31c-2.36-2.19-5.39,3.23-6.91,5.93.36,0,.73,0,1.09,0a12.44,12.44,0,0,0,4.43-4.13c.22-.36.8,0,.57.32a13,13,0,0,1-3.59,3.73,7.52,7.52,0,0,0,3.12-.91C86.23,63.62,87.57,61.29,85.83,59.67Zm11.92,8.24a2.1,2.1,0,0,0-1.44-3c-2.17-.4-2.21,2.33-2,4.08a10.33,10.33,0,0,0,1.73-2.79c.16-.38.81-.22.64.17a11.39,11.39,0,0,1-1.83,3A3.16,3.16,0,0,0,97.75,67.91ZM86.38,74.77c.45,1.82,2,3.85,4.21,3.29,4.57-1.18-.54-6.44-2.83-8.27l-.41-.1c.5,1.39,1,2.79,1.51,4.19.14.4-.5.57-.64.17l-1.56-4.33A11.09,11.09,0,0,0,86.38,74.77ZM71.62,72.69a8.4,8.4,0,0,0,.82,1.16c1.37.31,2-.06,1.88-1.13.23-1.25-.67-3.23-1.27-4.24a7.46,7.46,0,0,0-1-1.33.56.56,0,0,1-.43.18,21.73,21.73,0,0,1,2.18,4.1c.15.39-.49.56-.65.17a20.47,20.47,0,0,0-3.1-5.31,4.94,4.94,0,0,1-.27.42,12.9,12.9,0,0,0,.6,3.35A11.92,11.92,0,0,0,71.62,72.69ZM55.77,65.08h0l0,0Zm-1-1a4.35,4.35,0,0,1,1.64-.54,2.5,2.5,0,0,1,2.52,1,45.93,45.93,0,0,1,7.85-.37c.06-.07.11-.14.17-.2a31.16,31.16,0,0,1-5-3.1.55.55,0,0,1-.2-.3,35.41,35.41,0,0,1-8.63-.95C53.66,61.11,54.2,62.62,54.82,64.09Zm16-5.87a11.87,11.87,0,0,0,4.09-3.46c.25-.34.83,0,.57.33a13.14,13.14,0,0,1-2.51,2.54c1-.31,1.91-.64,2.8-1a11.83,11.83,0,0,0,4-5.53c.13-.39.78-.22.64.18a12.64,12.64,0,0,1-2.64,4.42,23.67,23.67,0,0,0,2.44-1.48,10.09,10.09,0,0,0,1.15-2.33c.46-1.05.89-2.11,1.31-3.17.15-.39.8-.22.64.17-.49,1.27-1,2.52-1.56,3.76-.09.2-.18.4-.26.6a21.76,21.76,0,0,0,2.15-2,11.66,11.66,0,0,0,.78-4.79c0-.43.64-.42.67,0a12.47,12.47,0,0,1-.36,3.51c.33-.43.64-.87.93-1.33a11.81,11.81,0,0,0,.54-4.51c0-.42.63-.41.66,0a11.59,11.59,0,0,1,0,2.36A13.82,13.82,0,0,0,88,40.79q0-.6-.06-1.2a3.06,3.06,0,0,1-1.11-.2.61.61,0,0,1-.15.12L83.1,43.65a2.77,2.77,0,0,1-.73.07,9,9,0,0,1-3.63-8,.33.33,0,0,1,.42-.31c1.92.36,3.83.8,5.73,1.28a1.31,1.31,0,0,1,0-.28,1.63,1.63,0,0,1,.29-1.1.36.36,0,0,1,0-.09,1.72,1.72,0,0,1,.87-.73.72.72,0,0,1,.85-.11c-.68-2.77-1.3-5.52-.56-8.49A3.46,3.46,0,0,1,84.77,25a3,3,0,0,1-.91-3,.73.73,0,0,1-.13-.23,2.28,2.28,0,0,0-1.25-1.28,37.73,37.73,0,0,1-4,2.24,34.76,34.76,0,0,1-9,2.65,7,7,0,0,0-.76,4.28c.11.84-1.22.83-1.33,0a8.46,8.46,0,0,1-.07-1.23,38.15,38.15,0,0,0-20.05,7.66c.48-.12,1-.22,1.44-.35.83-.2,1.19,1.06.36,1.26A216.76,216.76,0,0,1,13.8,42.85l1,.18a.44.44,0,0,1,.17.07.59.59,0,0,1,.43.18c1.84-.2,3.69-.34,5.55-.4a.33.33,0,0,1,0,.66c-1.8.05-3.59.18-5.38.37a.61.61,0,0,1-.44.47,53,53,0,0,0-9.49,3.7q13.88-2.55,27.87-4.37a.75.75,0,0,1,.44-.43l16.87-5.61c.82-.27,1.17,1,.36,1.26L43.71,41.4a30.16,30.16,0,0,0,11-.17c.42-.09.6.54.18.63a32.19,32.19,0,0,1-12.41,0l-.09,0-4.66,1.55a57.16,57.16,0,0,0,11.48.48c3.93-.13,7.95-.24,11.37-2.36a.33.33,0,0,1,.34.57c-3.29,2-7.1,2.27-10.88,2.41a56.52,56.52,0,0,1-13.57-.68L35.8,44c1,.49,2.05,1,3.11,1.44a52.08,52.08,0,0,0,9.09.29c.43,0,.43.63,0,.65a53.32,53.32,0,0,1-7-.08c1.6.65,3.25,1.24,4.92,1.79a65.22,65.22,0,0,0,16.86-2.07.33.33,0,0,1,.18.63,65.86,65.86,0,0,1-15,2.07c1.75.51,3.52,1,5.29,1.3a54,54,0,0,0,9.16-1.71.33.33,0,0,1,.17.63,53.07,53.07,0,0,1-7.13,1.47c1.05.17,2.1.3,3.15.4A19.75,19.75,0,0,0,63,49.73c.4-.16.58.48.18.63A20.14,20.14,0,0,1,61.1,51c.77,0,1.53,0,2.29,0,5.38-.1,11.33-2.22,13.15-7.67,2.93-8.74-7.34-11.8-13.92-9.74a.66.66,0,0,1-.36-1.26C67.5,30.73,73.71,31.21,77,36.14c2.86,4.35,1,9.65-2.78,12.81C69.51,52.81,63,52.68,57.3,51.85c-1.87-.27-3.72-.61-5.57-1l-.32,0a.28.28,0,0,1-.29-.16,74.77,74.77,0,0,1-10.59-3.22C44.39,59,59.4,61,70.78,58.22Z" transform="translate(-2.11 -2)" fill="#484848"/><path d="M80.37,23.91a.68.68,0,0,1,.83.73,1.46,1.46,0,0,1-.92,1.77.69.69,0,0,1-.76-.3A1.44,1.44,0,0,1,80.37,23.91Z" transform="translate(-2.11 -2)" fill="#484848"/><path d="M57.18,40.93c-.42,0-.43-.67,0-.65a.85.85,0,0,0,.65-.2c.33-.26.8.19.47.47A1.52,1.52,0,0,1,57.18,40.93Z" transform="translate(-2.11 -2)" fill="#484848"/><path d="M59.94,44.87a42.45,42.45,0,0,1-8.82,1.47c-.43,0-.43-.63,0-.66a40.74,40.74,0,0,0,8.64-1.44A.33.33,0,0,1,59.94,44.87Z" transform="translate(-2.11 -2)" fill="#484848"/><path d="M24,43.4h-.74a.33.33,0,0,1,0-.65H24A.33.33,0,0,1,24,43.4Z" transform="translate(-2.11 -2)" fill="#484848"/><path d="M136,68.36a11.34,11.34,0,0,1-3.91-5.89,10,10,0,0,1,.94-8,.55.55,0,0,1-.53-.19c-3.45-3.76-2.08-11.17,3.85-11.64,2.66-.2,2.9,2.65,2.58,4.67a8.12,8.12,0,0,1-1.15,3A8.35,8.35,0,0,1,146,51.69c2.68,2,4.08,6.28,1.64,9a4.12,4.12,0,0,1-7.05-1.44.47.47,0,0,1,0-.23.67.67,0,0,1-.09-1,5.84,5.84,0,0,1,7-1.37,4.11,4.11,0,0,0-.25-.78,2.69,2.69,0,0,0-.85-2,6.47,6.47,0,0,0-3.5-2.31,8,8,0,0,0-7.51,1.56c-4.62,4.24-2.07,12,2.9,14.66A15.26,15.26,0,0,0,141.05,69l.12,0a18.87,18.87,0,0,0,5.3.7,4,4,0,0,1-2.15-2.1,3.37,3.37,0,0,1,1.7-4.25A3,3,0,0,1,150,64.6a7.06,7.06,0,0,1,.31,4.86c1.33-.18,2.67-.45,4-.77.45-.38.87-.71,1.22-1a.6.6,0,0,1,.94.4l.17,0a.71.71,0,0,1,1.05-.29c1.65-.47,3.3-1,4.92-1.47a8.4,8.4,0,0,1-5.81-2.22,4.12,4.12,0,0,1-.57-5.39c3.82-5.12,8.25,3.82,9.92,6.57a48.18,48.18,0,0,1,5-1.13c.9-.15,1.83-.27,2.76-.36a.71.71,0,0,1,.5-.09,1.72,1.72,0,0,1,.07-.21,2.79,2.79,0,0,1,2.66-1.4,4,4,0,0,1,1.84.43,29.74,29.74,0,0,0,4.4-2.57,41.59,41.59,0,0,1-9.92-1.75c-6-1.86-11.46-5.67-14.13-11.43a15.68,15.68,0,0,1-1.47-7.8c.36-4.63,2.84-8.79,1.57-13.5a12.87,12.87,0,0,1-2.82-.43.66.66,0,0,1-.16-1.2,7.53,7.53,0,0,1,2.53-1c-1.32-1.09-2.62-2.2-3.89-3.36a.66.66,0,0,1,.48-1.12,26.79,26.79,0,0,1,7,1.08,5.75,5.75,0,0,1,3.58-2.63c1.58-.43,4-.84,5.58,0l.13-.11a2.23,2.23,0,0,1,3.17.45A2.67,2.67,0,0,1,178,15a2.25,2.25,0,0,1,2,1.87A2.81,2.81,0,0,1,179.9,18c6.75-2.63,11.16,4.13,16.3,8.15,7.92,4,16.66-5.29,24.37,0a.3.3,0,0,1,.14.25,3,3,0,0,1,0,4.43.32.32,0,0,1-.55.17,8.5,8.5,0,0,0-6.77-2.66,4.8,4.8,0,0,0-.31,1.57c-.07,1.08-.05,1.95-1.15,2.52a3.58,3.58,0,0,1-2.07.27c-.55-.06-1.09-.25-1.64-.28a1.71,1.71,0,0,0-2.22.92c-1.13.18-1.61.63-1.43,1.37a10.41,10.41,0,0,1-.17,1.91,217.6,217.6,0,0,0,34,4.76.65.65,0,0,1,.6.46.73.73,0,0,1-.58,1c-1.22.14-2.42.33-3.63.53a55.51,55.51,0,0,1,9.38,4.12.6.6,0,0,1,.31.62c.81.17.46,1.41-.37,1.25q-15.73-3-31.63-5c-1.59.79-3.2,1.53-4.83,2.19a.56.56,0,0,1,.2.65c-2,6.18-6.85,9.77-12.65,11.51a.5.5,0,0,1,.05.13l0,0c.6-.59,1.55.33.94.92L196,60a.63.63,0,0,1-1-.09c-.49,1.55-1,3.07-1.68,4.56a3.77,3.77,0,0,1,.91,2.28c6.6,3,11.74,8.17,13,16.24.13.82-1.15,1.17-1.28.34a21.72,21.72,0,0,0-1.62-5.47.66.66,0,0,1-.7-.11,18.65,18.65,0,0,0-17.46-4,.64.64,0,0,1-.27,0,3.17,3.17,0,0,1-.21.41,2.58,2.58,0,0,1-1,1.12,3.06,3.06,0,0,1-4.58-1.4v0a2,2,0,0,1-.24-1.27,1.63,1.63,0,0,1,.16-.47,3,3,0,0,1,2.57-2.34,2.93,2.93,0,0,1,3.5,2.61,20,20,0,0,1,17.09,3.29,20.06,20.06,0,0,0-9.5-7.89.64.64,0,0,1-.81-.34c-.47-.19-.94-.36-1.43-.52.13.66-.85,1.16-1.2.47a5,5,0,0,1-.35-1l-1-.25,0,.4c.12.83-1.21.82-1.33,0,0-.24,0-.47-.05-.7a43.31,43.31,0,0,0-6.59-.79,4.66,4.66,0,0,1,.16.92c0,.84-1.29.83-1.33,0a3.06,3.06,0,0,0-.22-1H178.2a3,3,0,0,0,.32.5.65.65,0,0,1-.24.89.68.68,0,0,1-.91-.23,3.92,3.92,0,0,1-.6-1.12l-1,0c.09.23.2.45.3.66.39.74-.74,1.39-1.14.67a13.05,13.05,0,0,1-2.57,7.18c-1.07,1.36-3,2.3-4.13.45s-.2-4.59.7-6.35a8.19,8.19,0,0,1,1.48-2.07,55.2,55.2,0,0,0-5.5,1.08c-2,.48-4.35,1.19-6.93,1.88.6,2.72,1,5.72-.68,8.14a4.5,4.5,0,0,1-5.3,1.83c-4.48-1.72-1.77-6,1-8.77-4,.83-8.16,1.3-11.75.65-1.23,2.19-2.74,4.56-5.22,5.45a5.4,5.4,0,0,1-5.82-1.43,3.52,3.52,0,0,1,.56-5A6.18,6.18,0,0,1,136,68.36Zm5.66-9.68a.55.55,0,0,1,.13.24q4.53.61,5.43-.81A4.5,4.5,0,0,0,141.69,58.68Zm-7.86-5.36a2.11,2.11,0,0,1,.19-.23.73.73,0,0,1-.17-.28C133.84,53,133.83,53.15,133.83,53.32Zm1.71-9.12c-4,1-4.5,6-2.36,8.77a19.38,19.38,0,0,1,1.09-5.63c.15-.39.79-.23.65.17a19,19,0,0,0-1,4.85.63.63,0,0,1,.26-.28,7,7,0,0,0,3.25-3.87C137.9,46.6,138.3,43.5,135.54,44.2ZM183,73.37h0a1.37,1.37,0,0,1-.56-.79A.57.57,0,0,0,183,73.37Zm-35.88-9a2.11,2.11,0,0,0-1.52,2.88,3.12,3.12,0,0,0,3,1.58,11.6,11.6,0,0,1-1.83-3c-.16-.39.49-.56.65-.18a10.56,10.56,0,0,0,1.72,2.79C149.32,66.71,149.27,64,147.11,64.38Zm10.48-5.22c-1.75,1.62-.39,4,1.29,4.94A7.52,7.52,0,0,0,162,65a13.15,13.15,0,0,1-3.59-3.73c-.23-.36.34-.69.57-.33a12.33,12.33,0,0,0,4.42,4.13h1.09C163,62.39,159.94,57,157.59,59.16Zm18.55,4.49.39,0c0-.05,0-.1,0-.15a1.42,1.42,0,0,0-.31.11S176.17,63.63,176.14,63.65Zm1.73-.14a.25.25,0,0,0,0,.08h.23l-.2-.07Zm-16.06-42a.66.66,0,0,1,0-.9,24.37,24.37,0,0,0-4.46-.85c1.25,1.1,2.51,2.18,3.81,3.22a.5.5,0,0,1,.18.61A1.51,1.51,0,0,0,161.81,21.5Zm-1.46,2.44h0a6.27,6.27,0,0,0-1.46.23,4,4,0,0,0,1.72-.15A.5.5,0,0,1,160.35,23.94Zm21.8-3.46a2.09,2.09,0,0,0-3.55,0,.62.62,0,0,1-.14.14,2.34,2.34,0,0,1,.41,1.65C180.14,22.44,183.21,22.31,182.15,20.48Zm-7.63,2.11a1.8,1.8,0,0,0,2.27.63,1.27,1.27,0,0,0,.3-2.15.57.57,0,0,1-.19-.31.67.67,0,0,1-.27-.13A1.46,1.46,0,0,0,174.52,22.59Zm6.38,4.12a40.59,40.59,0,0,1,9.92,2.37c-2.82-2.3-5.77-4.26-9.52-3.83A2.22,2.22,0,0,1,180.9,26.71Zm-1.39-.53c1.09-.43.15-2.39-.84-2.34a.62.62,0,0,1-.42-.13,2.35,2.35,0,0,1-.43.4c-.1.07-.2.12-.3.18a3.83,3.83,0,0,0,.61,1.41.55.55,0,0,1,.37.36A1,1,0,0,0,179.51,26.18Zm-3.69-1.42s0-.05,0-.08a3.19,3.19,0,0,1-1.37-.43h0c-.6.85-1.46,2.75,0,3.32a1.27,1.27,0,0,0,1.52-.74A2.45,2.45,0,0,0,175.82,24.76Zm-2.65-1.89a2.76,2.76,0,0,1-.27-1.28l-.07,0c-1-.43-3-.31-2.82,1.2s2.41.57,3.14.1Zm-.34-5.28a1.79,1.79,0,0,0-.39.21.65.65,0,0,1-.33.43c-.26.72.46,1.69,1.27,1.91,0,0,0,0,.05,0a2.59,2.59,0,0,1,.4-.41,3,3,0,0,1,.91-.52C174.44,18.42,173.83,17.24,172.83,17.59Zm4.8-1.36c-1.5,0-1.69,1.72-1.32,2.78a.38.38,0,0,1,0,.1,2.73,2.73,0,0,1,1,.4.59.59,0,0,1,.13-.19,3.32,3.32,0,0,0,1.26-2A1,1,0,0,0,177.63,16.23Zm42.74,14.05a2.34,2.34,0,0,0-.37-3.59,6,6,0,0,0-4.54,0,4,4,0,0,0-1.62,1.05A9.16,9.16,0,0,1,220.37,30.28Zm-16.21,2.87a2.58,2.58,0,0,1,1-1,24.52,24.52,0,0,1-11-3c-.37-.21,0-.77.34-.57a23.77,23.77,0,0,0,12.83,2.9.27.27,0,0,1,.3.19,6.31,6.31,0,0,1,.76.08,17,17,0,0,0,1.9.23c2,.1,2-1.58,2.22-3.12.36-2.57,3.28-3.39,5.79-3.2-6.34-2.36-13.37,3.24-20,1.86a9.83,9.83,0,0,0,3.23,1.24c.43.07.25.7-.17.63-3.6-.62-6.24-3-8.72-5.44-3-3-6.89-6.73-11.42-5.68a3.2,3.2,0,0,1,1.92,1.2,15.88,15.88,0,0,1,4.13,1.41c.39.19.05.76-.33.57a15.24,15.24,0,0,0-3.36-1.23,2.65,2.65,0,0,1,.23,1.16c2.41.17,4.41,2,6.28,3.35.35.25,0,.82-.33.57-1.78-1.26-3.81-3.18-6.11-3.28a3.69,3.69,0,0,1-2.91,1.51,3.25,3.25,0,0,1,.53,1.07c4.67-.51,8.07,2.38,11.47,5.22a40.34,40.34,0,0,1,10.18,6.45l.88.2C204.35,35.65,203.7,34,204.16,33.15ZM206.58,47A75,75,0,0,1,196,50.17a.28.28,0,0,1-.3.18l-.38,0c-1.58.34-3.18.65-4.78.9-5.91.93-12.74,1.25-17.6-2.79-3.61-3-5.56-8-3.1-12.33,3.06-5.33,9.62-5.93,15-4.25a.65.65,0,0,1-.35,1.26c-6.14-1.92-15.87.35-14.29,8.72,1.15,6.1,8,8.59,13.52,8.7.76,0,1.52,0,2.29,0a20.14,20.14,0,0,1-2.09-.65c-.4-.15-.23-.78.18-.63a19.75,19.75,0,0,0,4.42,1.11c1-.09,2.1-.23,3.15-.39a54.7,54.7,0,0,1-7.13-1.48.33.33,0,0,1,.17-.63,52.05,52.05,0,0,0,9.16,1.71c1.77-.35,3.54-.78,5.29-1.29a65.87,65.87,0,0,1-15-2.08c-.42-.1-.24-.73.17-.63a65.28,65.28,0,0,0,16.86,2.07c1.68-.54,3.33-1.14,4.93-1.79a51.8,51.8,0,0,1-7.05.09c-.42,0-.42-.68,0-.66a52.2,52.2,0,0,0,9.1-.29c1.06-.46,2.1-.94,3.11-1.44l-.67-.22a57,57,0,0,1-13.57.69c-3.79-.14-7.59-.39-10.88-2.42-.36-.22,0-.79.33-.56,3.43,2.11,7.45,2.22,11.38,2.35a56.43,56.43,0,0,0,11.48-.48l-4.67-1.55-.08,0a32.38,32.38,0,0,1-12.41,0c-.42-.08-.24-.71.18-.63a30.17,30.17,0,0,0,11,.18L196,38.41c-.81-.27-.46-1.53.35-1.26l16.88,5.61a.7.7,0,0,1,.43.43q14,1.81,27.88,4.37a53,53,0,0,0-9.49-3.7.59.59,0,0,1-.44-.46c-1.79-.2-3.58-.32-5.38-.38a.33.33,0,0,1,0-.65c1.86.05,3.71.19,5.55.4a.59.59,0,0,1,.42-.19,1,1,0,0,1,.18-.07l1-.17a219,219,0,0,1-35.23-5.85.66.66,0,0,1,.36-1.26l1.44.34q-.8-.6-1.62-1.17a.31.31,0,0,1-.28,0,19,19,0,0,1-3.42-2.21,38.53,38.53,0,0,0-15-4.29.66.66,0,0,1-.54-.35,3.05,3.05,0,0,1-.41-.05,4.77,4.77,0,0,1-.75,2.4c-.46.71-1.61.05-1.15-.66a3.63,3.63,0,0,0,.59-2.18,3.09,3.09,0,0,1-.41.81,2.49,2.49,0,0,1-4.51-.9,3.47,3.47,0,0,1,.31-2.35,3.43,3.43,0,0,1-2.32.24,2.21,2.21,0,0,1-1.7-2.08,2.68,2.68,0,0,1,1.41-2.39,2.92,2.92,0,0,1,1.09-.33,2.56,2.56,0,0,1-.32-2.19c-1.22-.5-3.49-.08-4.43.19a4.38,4.38,0,0,0-2.8,2.06.68.68,0,0,1-.28.73c0,.09,0,.17-.07.26a.64.64,0,0,1-.1.22,2.93,2.93,0,0,1-.84,3.19,3.39,3.39,0,0,1-1.61.84,11.42,11.42,0,0,1,.33,3,8.28,8.28,0,0,0,6,7.4.33.33,0,0,1-.18.63,9,9,0,0,1-6.07-5.75c-.53,3.17-1.76,6.24-1.73,9.6a14.2,14.2,0,0,0,1.23,5.6,11.67,11.67,0,0,1,0-2.29c0-.42.69-.42.66,0a11.53,11.53,0,0,0,.51,4.42,14.1,14.1,0,0,0,.95,1.38,11.91,11.91,0,0,1-.35-3.48c0-.42.69-.42.67,0a11.72,11.72,0,0,0,.76,4.77,21,21,0,0,0,2.17,2l-.26-.6q-.82-1.86-1.56-3.75c-.16-.4.49-.57.64-.18.41,1.07.85,2.13,1.3,3.17A10.14,10.14,0,0,0,167,53.69a21.71,21.71,0,0,0,2.44,1.48,12.46,12.46,0,0,1-2.64-4.42c-.14-.4.5-.57.64-.17a11.81,11.81,0,0,0,4,5.52c.89.37,1.83.71,2.8,1a12.91,12.91,0,0,1-2.52-2.54c-.25-.34.33-.66.58-.33a11.93,11.93,0,0,0,4.1,3.47C187.72,60.48,202.72,58.5,206.58,47ZM191.35,64.56a2.9,2.9,0,0,0-.17,1c.55.18,1.09.38,1.63.59A2.59,2.59,0,0,0,191.35,64.56ZM190,64.33a1,1,0,0,0-.88.6l.74.2A4.47,4.47,0,0,1,190,64.33Zm-2.19.28a2.36,2.36,0,0,1,2.8-1.57,4.23,4.23,0,0,1,1.65.54,45.74,45.74,0,0,0,1.62-4.51,35.28,35.28,0,0,1-8.62,1,.59.59,0,0,1-.2.29,30.9,30.9,0,0,1-5,3.1l.17.21A41.73,41.73,0,0,1,187.84,64.61Zm-18.75,7.6c.31,1.63,1.76,1.41,2.53.25a12.27,12.27,0,0,0,2-7,20.36,20.36,0,0,0-3.4,5.66c-.15.38-.79.21-.64-.18a22,22,0,0,1,2.91-5.15A5.61,5.61,0,0,0,170.37,68C169.76,69,168.87,71,169.09,72.21Zm-16.26,5.34c2.14.55,3.76-1.48,4.21-3.3a11.09,11.09,0,0,0-.28-5l-1.56,4.34c-.14.39-.78.22-.64-.18l1.5-4.18-.42.1C153.34,71.13,148.27,76.37,152.83,77.55Zm-20.12-2.86c3,1.13,5.1-1.15,6.61-3.5l-4.44,1.6c-.4.15-.58-.48-.18-.63l5-1.78a.33.33,0,0,1,.17,0l.09-.15c-.25-.07-.49-.14-.73-.23a.61.61,0,0,1-.69.24c-2-.53-4.31-1.23-6.21-.12C130.19,71.34,130.48,73.84,132.71,74.69Z" transform="translate(-2.11 -2)" fill="#484848"/><path d="M161.21,74.64h.25a.66.66,0,0,1,0,1.31h-.25A.66.66,0,0,1,161.21,74.64Z" transform="translate(-2.11 -2)" fill="#484848"/><path d="M193.13,61.6v-.24a.67.67,0,0,1,1.33,0v.24A.67.67,0,0,1,193.13,61.6Z" transform="translate(-2.11 -2)" fill="#484848"/><path d="M127.58,61.36v.24a.67.67,0,0,1-1.33,0v-.24A.67.67,0,0,1,127.58,61.36Z" transform="translate(-2.11 -2)" fill="#484848"/><path d="M124.71,56.86H125a.66.66,0,0,1,0,1.31h-.25A.66.66,0,0,1,124.71,56.86Z" transform="translate(-2.11 -2)" fill="#484848"/><path d="M164.83,23.89a1.44,1.44,0,0,1-.92-1.76.68.68,0,0,1,.83-.74,1.44,1.44,0,0,1,.84,2.2A.68.68,0,0,1,164.83,23.89Z" transform="translate(-2.11 -2)" fill="#484848"/><path d="M187.27,37.57a.91.91,0,0,0,.66.2c.42,0,.42.63,0,.65A1.59,1.59,0,0,1,186.8,38C186.48,37.76,187,37.3,187.27,37.57Z" transform="translate(-2.11 -2)" fill="#484848"/><path d="M185.34,41.72A41.6,41.6,0,0,0,194,43.17c.43,0,.43.68,0,.65a41.79,41.79,0,0,1-8.82-1.47A.33.33,0,0,1,185.34,41.72Z" transform="translate(-2.11 -2)" fill="#484848"/><path d="M221.08,40.23h.74a.33.33,0,0,1,0,.66h-.74A.33.33,0,0,1,221.08,40.23Z" transform="translate(-2.11 -2)" fill="#484848"/><path d="M188.93,24.37c-.31-.07-.27-.6.11-.64a.48.48,0,0,1,.54.53A.34.34,0,0,1,188.93,24.37Z" transform="translate(-2.11 -2)" fill="#484848"/></svg>