<svg id="prokes4putih" xmlns="http://www.w3.org/2000/svg" xmlns:xlink="http://www.w3.org/1999/xlink" viewBox="0 0 77.68 77.68"><defs><clipPath id="clip-path"><rect width="77.68" height="77.68" fill="none"/></clipPath></defs><title>prokes4</title><g clip-path="url(#clip-path)"><g id="Group_16163" data-name="Group 16163"><g id="Group_16162" data-name="Group 16162"><g id="Group_16159" data-name="Group 16159"><path id="Path_424506" data-name="Path 424506" d="M19.79,48.84l4.53-15.4c.85.68,1.93.91,5,.41s7.93-4,12.31.11,14.67,12.2,14,15.74-3,2.21-3,2.21.34,4.7-4.05,4.37c.84,3.88-4,4.22-5.23,3.54-1.34,3.37-1.54,3.16-5.42.69" fill="none" stroke="#1c1b1b" stroke-miterlimit="10" stroke-width="2"/><g id="Group_16158" data-name="Group 16158"><path id="Path_424507" data-name="Path 424507" d="M-13.46,15.78s36.19,13.56,37.69,15S19.91,49.45,18.58,51.6s-37.24-7.7-37.24-7.7Z" fill="none" stroke="#1c1b1b" stroke-miterlimit="10" stroke-width="2"/></g></g><g id="Group_16161" data-name="Group 16161"><path id="Path_424508" data-name="Path 424508" d="M58.77,31.76s-2.45.63-9,.47-7.46-3.06-11.93,0-7,3.81-6.84,6,7.34,1.87,9.7,0S44,36.92,44,36.92l7.39,6,3.74,4.72.45,2c1,.75,2.75-1.34,7.44-.47,1.22.23.94-.39.94-.39Z" fill="none" stroke="#1c1b1b" stroke-miterlimit="10" stroke-width="2"/><path id="Path_424509" data-name="Path 424509" d="M21.5,50.07c-.53,1.72,1.57,3,3,2.51-.59,1.62,1,3.73,3.51,3.6-.5,1.62,1.87,3.48,3.6,3.11-.25,3.23,3.36,3.36,4.72,2.61s3.11-3.36,3.11-4.35a2.81,2.81,0,0,0-3.2-2.37h0c.12-1.49-1.86-3.36-3.85-2.86.12-1.62-.62-3.6-3.36-3.36a2.65,2.65,0,0,0-3.73-2.85C23.38,47.11,22.12,48,21.5,50.07Z" fill="none" stroke="#1c1b1b" stroke-miterlimit="10" stroke-width="2"/><g id="Group_16160" data-name="Group 16160"><path id="Path_424510" data-name="Path 424510" d="M96.57,14.17s-36.19,13.55-37.69,15S63.19,47.83,64.53,50s37.24-7.7,37.24-7.7Z" fill="none" stroke="#1c1b1b" stroke-miterlimit="10" stroke-width="2"/></g><g id="Ellipse_1318" data-name="Ellipse 1318"><circle cx="39.07" cy="16.43" r="11" fill="none" stroke="#1c1b1b" stroke-miterlimit="10"/><circle cx="39.07" cy="16.43" r="10" fill="none" stroke="#1c1b1b" stroke-width="2"/></g><path id="Path_484160" data-name="Path 484160" d="M42.93,12.06l-7.72,7.71" fill="none" stroke="#1c1b1b" stroke-width="2"/><path id="Path_484161" data-name="Path 484161" d="M42.93,19.77l-7.72-7.71" fill="none" stroke="#1c1b1b" stroke-width="2"/></g></g></g></g></svg>