<svg id="prokes3putih" xmlns="http://www.w3.org/2000/svg" xmlns:xlink="http://www.w3.org/1999/xlink" viewBox="0 0 84.33 77.68"><defs><clipPath id="clip-path"><rect width="84.33" height="77.68" fill="none"/></clipPath></defs><title>prokes3</title><g clip-path="url(#clip-path)"><g id="Group_16148" data-name="Group 16148"><g id="Group_16147" data-name="Group 16147"><path id="Path_424500" data-name="Path 424500" d="M19.83,24.77A4,4,0,0,0,18,24.4c-3.43.14-4.32-1.49-6.08-.41s-3.1,1.29-3.39,2.9c-.26,1.43-2.45.74-2.39,3h0c0,.28-.5,1.22-.42,1.6.75,3.41,1.74,5.13,2.26,5.4a13.52,13.52,0,0,1-.41,3.28,4.54,4.54,0,0,0-.82.07s0,2.52,0,2.7C3.69,44.6,3,46.49,1.24,49s-1,8.94-1,11.21a43.57,43.57,0,0,0,1.41,9.29c.68,2.46-.6,8-.6,8s1.51,2.08,2.55,2.18c12.18-1.1,15.94,3.62,16,2s.13-8.51-.63-11.14.52-8.42-.31-11.46-1.2-8.58-1.6-9.51-1.9-1.13-1.9-1.13.45-1.78.45-1.71A14.47,14.47,0,0,0,14.22,44l.23.06s1.11-2.17,1.15-2.18c2.67,1.29,3.58-.61,4-2.3.15-.7.27-1.4.35-2.11l.66-.15a.42.42,0,0,0,.32-.49.64.64,0,0,0,0-.07l-1-2.47.3-.21a.4.4,0,0,0,.17-.38l-.52-4.15.09,0c0-1.27,2.79.26.29-4.06Z" fill="none" stroke="#1c1b1b" stroke-miterlimit="10" stroke-width="2"/><path id="Path_424501" data-name="Path 424501" d="M82.29,60.2c0-2.27.77-8.73-1-11.22s-2.45-4.38-5.46-6c-.06-.19,0-2.7,0-2.7a4.56,4.56,0,0,0-.82-.08,13.4,13.4,0,0,1-.41-3.28c.52-.27,1.51-2,2.26-5.4.08-.37-.42-1.31-.42-1.59h0c.06-2.24-2.13-1.55-2.39-3-.3-1.61-1.63-1.82-3.39-2.9s-2.65.56-6.08.41a3.85,3.85,0,0,0-1.85.38l-.41.76c-2.5,4.31.32,2.78.29,4.05l.09,0-.52,4.16a.42.42,0,0,0,.17.38l.3.21-1,2.47a.43.43,0,0,0,.24.54l.06,0,.66.14A21.1,21.1,0,0,0,63,39.6c.39,1.7,1.3,3.6,4,2.3,0,0,1.15,2.19,1.15,2.19l.23-.07a15.15,15.15,0,0,0-1.43,2.66c0-.06.45,1.71.45,1.71s-1.49.21-1.89,1.13S64.66,56,63.83,59s.45,8.83-.31,11.46-.74,9.5-.63,11.14,3.87-3.1,16-2c1-.1,2.55-2.18,2.55-2.18s-1.28-5.51-.6-8A43.39,43.39,0,0,0,82.29,60.2Z" fill="none" stroke="#1c1b1b" stroke-miterlimit="10" stroke-width="2"/><g id="Group_16146" data-name="Group 16146"><g id="Group_16145" data-name="Group 16145"><g id="Group_16144" data-name="Group 16144"><line id="Line_2" data-name="Line 2" x1="23.91" y1="51.6" x2="58.62" y2="51.6" fill="none" stroke="#1c1b1b" stroke-miterlimit="10" stroke-width="2"/><line id="Line_3" data-name="Line 3" x1="58.62" y1="48.02" x2="58.62" y2="55.17" fill="none" stroke="#1c1b1b" stroke-miterlimit="10" stroke-width="2"/><line id="Line_4" data-name="Line 4" x1="23.91" y1="48.02" x2="23.91" y2="55.17" fill="none" stroke="#1c1b1b" stroke-miterlimit="10" stroke-width="2"/></g></g></g></g></g></g></svg>