<svg id="prokes1putih" xmlns="http://www.w3.org/2000/svg" xmlns:xlink="http://www.w3.org/1999/xlink" viewBox="0 0 77.68 77.68"><defs><clipPath id="clip-path"><rect width="77.68" height="77.68" fill="none"/></clipPath></defs><title>prokes1</title><g clip-path="url(#clip-path)"><g id="Group_16156" data-name="Group 16156"><g id="Group_16155" data-name="Group 16155"><g id="Group_16150" data-name="Group 16150"><path id="Path_424502" data-name="Path 424502" d="M19.43,45.37c3.62-.13,3.09-3.76,9.24-3.63s12.85,3.88,15.79,4.15S49.81,46,48.61,49s-9.37,1.6-9.37,1.6,6.69,4.15,11.65,2.68,10.3-3.49,12.17-1.74-4.68,4.55-9.23,7-5.75,2.41-11.78,1.61A88.19,88.19,0,0,0,28.27,59c-5.08,0-8.46-.14-8.46-.14Z" fill="none" stroke="#141414" stroke-miterlimit="10" stroke-width="2"/></g><g id="Group_16151" data-name="Group 16151"><path id="Path_424503" data-name="Path 424503" d="M-15.89,38.86S17,42,18.63,43s1.48,17.4.8,19.53-33.59,1.61-33.59,1.61Z" fill="none" stroke="#141414" stroke-miterlimit="10" stroke-width="2"/></g><g id="Group_16152" data-name="Group 16152"><path id="Path_424504" data-name="Path 424504" d="M40.25,22.56c0,2.89,0,4,5.39,4.47s34.89,5.5,34.89,5.5l-.9-9.28S51,20.33,47.08,19.81,40.26,20.17,40.25,22.56Z" fill="none" stroke="#141414" stroke-miterlimit="10" stroke-width="2"/><path id="Rectangle_3497" data-name="Rectangle 3497" d="M41.7,25.64l5.21.79a1.14,1.14,0,0,1,1,1.3h0l-.07.53a1.16,1.16,0,0,1-1.31,1l-5.22-.79a1.15,1.15,0,0,1-1-1.3h0l.08-.53a1.16,1.16,0,0,1,1.31-1Z" fill="none" stroke="#141414" stroke-miterlimit="10" stroke-width="2"/></g><g id="Group_16154" data-name="Group 16154"><g id="Group_16153" data-name="Group 16153"><path id="Path_424505" data-name="Path 424505" d="M44,33.47s-4.3,8.06,0,8.27C49.5,42,44,33.47,44,33.47Z" fill="none" stroke="#141414" stroke-miterlimit="10" stroke-width="2"/></g></g></g></g></g></svg>