<svg id="prokes2putih" xmlns="http://www.w3.org/2000/svg" xmlns:xlink="http://www.w3.org/1999/xlink" viewBox="0 0 73.4 73.4"><defs><clipPath id="clip-path"><rect width="73.4" height="73.4" fill="none"/></clipPath></defs><title>prokes2</title><g clip-path="url(#clip-path)"><g id="Group_16142" data-name="Group 16142"><g id="Group_16141" data-name="Group 16141"><g id="Group_16138" data-name="Group 16138"><g id="Group_16131" data-name="Group 16131"><line id="Line_1" data-name="Line 1" x1="21.98" y1="52.04" x2="23.12" y2="40.77" fill="none" stroke="#1c1b1b" stroke-miterlimit="10" stroke-width="2"/><path id="Path_424491" data-name="Path 424491" d="M42.12,54.68c-.09,0-2.84,5.07-2.84,5.07" fill="none" stroke="#1c1b1b" stroke-miterlimit="10" stroke-width="2"/><path id="Path_424492" data-name="Path 424492" d="M53,25.8l.95,9.92a1,1,0,0,1-.42.89l-.71.48,2.29,5.74" fill="none" stroke="#1c1b1b" stroke-miterlimit="10" stroke-width="2"/></g><g id="Group_16132" data-name="Group 16132"><path id="Path_424493" data-name="Path 424493" d="M53.19,14.61a9.06,9.06,0,0,0-4.33-1c-8.09.12-10.08-3.79-14.29-1.37s-7.38,2.85-8.18,6.62c-.71,3.37-5.81,1.6-5.83,6.88h0c0,.65-1.26,2.84-1.09,3.73,1.55,8.1,3.76,12.2,5,12.86,0,0,5.93,0,5.52-3.66s.76-5.9,2.74-6.89c1.55-.78,3.89,1.38,4,2.59.07.53.94.35,1.34,0,1.15-1,2.77-2.72,2.63-4.42A7.2,7.2,0,0,1,42,25.77c1.1-1.65,2.8-2.88,4.78-2.42,2.49.59,4.17,2.26,6.35,2.61,0-3,6.56.8,1-9.53C54.12,16.42,53.82,14.9,53.19,14.61Z" fill="none" stroke="#1c1b1b" stroke-miterlimit="10" stroke-width="2"/></g><g id="Group_16133" data-name="Group 16133"><path id="Path_424494" data-name="Path 424494" d="M52.35,35.12a8.24,8.24,0,0,0-5.15-.67L47,33.72a8.74,8.74,0,0,1,5.67.73Z" fill="none" stroke="#1c1b1b"/></g><g id="Group_16135" data-name="Group 16135"><g id="Group_16134" data-name="Group 16134"><path id="Path_424495" data-name="Path 424495" d="M50.44,38.09A2.91,2.91,0,0,1,48,36.68l.65-.39-.32.19.32-.19a2.12,2.12,0,0,0,2.79.8l.32.69A3.09,3.09,0,0,1,50.44,38.09Z" fill="none" stroke="#1c1b1b"/></g></g><g id="Group_16136" data-name="Group 16136"><path id="Path_424496" data-name="Path 424496" d="M18.21,52.91s12.53-5.63,23.65,10.64c0-.14-.2,4.16-.2,4.16s3.53-.23,4.91,1.71S51.45,84,54.82,90.61,58,111.2,61,116.91s6.22,21.58,6.76,25.4-10.4-5.29-38,3.06c-2.43.27-6.91-3.82-6.91-3.82s.31-13.33-2.43-18.69-6.69-15.5-7.69-20.76-5.93-19.77-3-26.35,3.56-11.29,9.7-16.58c.06-.46-1.2-6.26-1.2-6.26" fill="none" stroke="#1c1b1b" stroke-miterlimit="10" stroke-width="2"/></g></g><g id="Group_16139" data-name="Group 16139"><path id="Path_424498" data-name="Path 424498" d="M37.22,47.22c-5.8-2.52-6.71-5.75-7.31-7.83a7.34,7.34,0,0,1,.44-5.84,4.77,4.77,0,0,1,4-2.34,1.78,1.78,0,0,1,1.55.85c2.51,4.71,3.64,4.63,3.69,4.64l-.13.75c-.23,0-1.52,0-4.22-5a1.1,1.1,0,0,0-.93-.44A4,4,0,0,0,31,34a6.46,6.46,0,0,0-.34,5.2c.56,2,1.36,5,6.88,7.35Z" fill="none" stroke="#1c1b1b"/></g><g id="Group_16140" data-name="Group 16140"><path id="Path_424499" data-name="Path 424499" d="M53.51,39.49c-4.67.33-9.85-1.1-14.29-2.59s-2.43,10.78-.54,14.43,5,4.31,7.6,4.44,8.92-5.29,9.22-9.1C55.71,44.17,54.3,39.43,53.51,39.49Z" fill="none" stroke="#1c1b1b" stroke-miterlimit="10" stroke-width="2"/></g></g></g></g></svg>